<svg id="Layer_3" data-name="Layer 3" xmlns="http://www.w3.org/2000/svg" viewBox="0 0 323.83 232.95"><defs><style>.cls-1,.cls-3{fill:none;}.cls-1,.cls-2,.cls-3{stroke:#fff;stroke-miterlimit:10;}.cls-1{stroke-width:20px;}.cls-2{fill:#fff;}.cls-3{stroke-width:17px;}</style></defs><title>ikeabagicon</title><path class="cls-1" d="M52.93,190h295L306.8,300.41a16,16,0,0,1-15.11,10.5L109,310a16,16,0,0,1-15-10.47Z" transform="translate(-38.5 -87.97)"/><polygon class="cls-2" points="91.94 92.5 113.94 25.5 145.94 0.5 161.94 0.5 161.94 23.5 136.94 23.5 114.94 94.5 91.94 92.5"/><polygon class="cls-2" points="236.94 92.5 214.94 25.5 182.94 0.5 161.94 0.5 161.94 23.5 191.94 23.5 213.94 94.5 236.94 92.5"/><line class="cls-3" x1="161.94" y1="127.5" x2="161.94" y2="196.5"/><line class="cls-3" x1="128.94" y1="161.5" x2="196.94" y2="161.5"/></svg>